HIERARCHY
ROOT Hips
{
 OFFSET 0.000000 0.000000 0.000000
 CHANNELS 6 Xposition Yposition Zposition Yrotation Xrotation Zrotation
 JOINT Chest
 {
  OFFSET 0.000000 12.953391 -0.028419
  CHANNELS 3 Yrotation Xrotation Zrotation
  JOINT Chest2
  {
   OFFSET 0.000000 10.280254 0.051622
   CHANNELS 3 Yrotation Xrotation Zrotation
   JOINT Chest3
   {
    OFFSET 0.000000 9.287180 0.000000
    CHANNELS 3 Yrotation Xrotation Zrotation
    JOINT Chest4
    {
     OFFSET 0.000000 9.287180 0.000000
     CHANNELS 3 Yrotation Xrotation Zrotation
     JOINT Neck
     {
      OFFSET 0.000000 13.296264 0.000000
      CHANNELS 3 Yrotation Xrotation Zrotation
      JOINT Head
      {
       OFFSET 0.000000 8.959264 0.099003
       CHANNELS 3 Yrotation Xrotation Zrotation
       End Site
       {
        OFFSET 0.000000 17.121337 0.039303
       }
      }
     }
     JOINT RightCollar
     {
      OFFSET -3.193511 7.451388 0.000000
      CHANNELS 3 Yrotation Xrotation Zrotation
      JOINT RightShoulder
      {
       OFFSET -15.792092 0.000000 0.000000
       CHANNELS 3 Yrotation Xrotation Zrotation
       JOINT RightElbow
       {
        OFFSET -31.151839 0.000000 0.000000
        CHANNELS 3 Yrotation Xrotation Zrotation
        JOINT RightWrist
        {
         OFFSET -25.536298 0.000000 0.002321
         CHANNELS 3 Yrotation Xrotation Zrotation
         End Site
         {
          OFFSET -19.133213 0.000000 0.000000
         }
        }
       }
      }
     }
     JOINT LeftCollar
     {
      OFFSET 3.193511 7.451388 0.000000
      CHANNELS 3 Yrotation Xrotation Zrotation
      JOINT LeftShoulder
      {
       OFFSET 15.792092 0.000000 0.000000
       CHANNELS 3 Yrotation Xrotation Zrotation
       JOINT LeftElbow
       {
        OFFSET 31.151839 0.000000 0.000000
        CHANNELS 3 Yrotation Xrotation Zrotation
        JOINT LeftWrist
        {
         OFFSET 25.536298 0.000000 0.002321
         CHANNELS 3 Yrotation Xrotation Zrotation
         End Site
         {
          OFFSET 19.133213 0.000000 0.000000
         }
        }
       }
      }
     }
    }
   }
  }
 }
 JOINT RightHip
 {
  OFFSET -10.745749 0.139252 0.014209
  CHANNELS 3 Yrotation Xrotation Zrotation
  JOINT RightKnee
  {
   OFFSET 0.000000 -43.743899 -0.006071
   CHANNELS 3 Yrotation Xrotation Zrotation
   JOINT RightAnkle
   {
    OFFSET 0.000000 -43.214199 0.089931
    CHANNELS 3 Yrotation Xrotation Zrotation
    JOINT RightToe
    {
     OFFSET 0.000000 -9.699830 19.151588
     CHANNELS 3 Yrotation Xrotation Zrotation
     End Site
     {
      OFFSET 0.000000 -1.292898 4.893873
     }
    }
   }
  }
 }
 JOINT LeftHip
 {
  OFFSET 10.745749 0.139252 0.014209
  CHANNELS 3 Yrotation Xrotation Zrotation
  JOINT LeftKnee
  {
   OFFSET 0.000000 -43.743899 -0.006071
   CHANNELS 3 Yrotation Xrotation Zrotation
   JOINT LeftAnkle
   {
    OFFSET 0.000000 -43.214199 0.089931
    CHANNELS 3 Yrotation Xrotation Zrotation
    JOINT LeftToe
    {
     OFFSET 0.000000 -9.699830 19.151588
     CHANNELS 3 Yrotation Xrotation Zrotation
     End Site
     {
      OFFSET 0.000000 -1.292898 4.893873
     }
    }
   }
  }
 }
}
MOTION
Frames: 16
Frame Time: 0.016667
59.150876 89.093261 -165.209527 -174.808060 11.588483 -13.632645 2.492239 9.348180 2.303090 1.057183 4.167405 0.969823 1.057125 4.167707 0.969931 0.785841 3.127689 0.719996 1.711353 17.016528 -4.073921 4.580256 -4.357813 -8.133165 7.548834 2.088997 13.509503 -4.194223 -4.148910 70.768329 20.125593 1.513646 -2.131810 14.743200 10.771258 -24.626504 -10.501426 8.599195 -11.345432 -22.715424 -1.710563 -69.323701 -43.517207 -15.224117 4.002145 -12.783184 3.019909 38.578412 -16.636479 -13.870414 -8.022446 4.527642 80.742907 4.483200 3.991150 18.259556 15.427078 0.000000 0.000000 0.000000 16.498422 -25.002139 -18.916076 -7.968928 32.357957 -0.264387 9.514998 -21.967871 24.853731 0.000000 0.000000 0.000000
59.753245 88.819889 -169.266055 -171.683770 11.863510 -12.811984 2.343602 9.545899 2.038449 0.995793 4.252793 0.854356 0.995793 4.252793 0.854356 0.740548 3.191003 0.633534 1.232204 16.738744 -4.026131 3.697512 -4.912853 -7.895213 7.386380 0.610228 13.413306 -5.238918 -2.265283 71.085007 9.756214 -1.767961 -1.911680 14.674842 11.840219 -24.028965 -10.447346 6.786520 -11.261073 -22.956267 -3.497894 -68.313812 -51.070156 -12.930057 4.426410 -12.708198 3.587239 39.063331 -15.068557 -17.947780 -8.331483 -1.944056 87.242263 -0.283578 -0.969681 16.192249 15.328946 0.000000 0.000000 0.000000 13.021871 -23.993554 -17.506444 -9.749144 34.701785 -1.457383 10.859970 -24.637525 23.388296 0.000000 0.000000 0.000000
59.899207 88.688118 -173.340938 -168.589467 12.394487 -11.931597 2.071887 9.685342 1.873937 0.878168 4.312503 0.786334 0.878155 4.312261 0.786282 0.652743 3.235173 0.583187 0.846613 16.429524 -4.041145 3.010753 -5.514140 -7.804957 7.375749 0.307591 13.114096 -5.595494 -0.221340 71.900702 2.057529 -2.741339 -2.133817 14.514430 12.137351 -23.939410 -10.896359 6.106746 -11.492234 -24.000932 -6.044515 -67.441411 -59.389883 -10.619567 5.670047 -12.379677 4.457416 39.267475 -14.424258 -22.712084 -8.588148 172.707062 88.505228 174.770046 -5.133234 13.053170 11.755655 0.000000 0.000000 0.000000 11.240144 -21.319570 -16.804751 -9.642725 34.729076 -1.002736 8.889073 -26.752876 23.115138 -0.000000 -0.000000 0.000000
59.768677 88.682697 -177.406824 -165.551806 13.058953 -10.979306 1.705631 9.796495 1.754234 0.717952 4.360085 0.740548 0.717911 4.359866 0.740512 0.532859 3.270617 0.549958 0.541670 16.104445 -4.106567 2.490566 -6.135899 -7.835287 7.470276 0.613333 12.747106 -5.686489 1.894250 72.969244 -3.622014 -2.615020 -3.045715 14.460105 11.954775 -23.838960 -11.586246 6.023566 -11.817867 -25.530787 -8.880397 -66.480384 -68.128090 -7.778744 7.013535 -11.905306 5.287830 39.134390 -14.023961 -27.914439 -8.889699 168.817539 86.133697 170.704204 -8.822072 9.229881 6.563886 0.000000 0.000000 0.000000 10.049137 -17.939834 -16.109400 -8.432049 33.561726 0.084043 5.276682 -28.563254 23.016008 0.000000 -0.000000 0.000000
59.649194 88.880859 -181.598284 -163.005779 13.555897 -10.394685 1.239195 9.847898 1.734277 0.511720 4.381415 0.741462 0.511720 4.381415 0.741462 0.378279 3.286690 0.552151 0.498554 15.916844 -4.234697 2.468766 -6.478752 -8.068185 7.506503 0.912996 12.511986 -6.283690 4.006027 73.702373 -6.830578 -3.432667 -3.669920 14.519771 12.405742 -23.713332 -12.210938 6.315472 -11.870387 -27.691999 -10.741400 -65.032166 -76.188273 -4.482028 8.784794 -11.608968 5.139783 38.570292 -13.011286 -32.685532 -9.051644 166.292841 86.187763 168.064752 -11.588919 6.099106 2.785779 0.000000 0.000000 0.000000 9.457792 -14.227411 -14.839040 -8.210470 31.685002 0.680780 2.453937 -29.698835 22.485461 0.000000 0.000000 0.000000
59.712957 89.359640 -185.943420 -161.150700 13.866209 -10.449075 0.586136 9.828898 1.849056 0.220311 4.370656 0.806217 0.220364 4.370758 0.806226 0.159448 3.278486 0.602810 0.880917 15.923395 -4.463076 3.261230 -6.421437 -8.631374 7.348790 0.911636 12.489816 -7.949310 6.377644 73.727984 -6.262375 -6.638724 -3.620874 14.716359 14.277840 -23.639061 -12.708621 7.019273 -11.378953 -31.372176 -10.648164 -62.573295 -83.404556 -0.065928 12.518129 -11.626474 3.280166 37.746743 -11.422709 -37.060776 -8.488052 -161.229145 89.333673 -159.858081 -13.774229 4.582581 1.539713 0.000000 0.000000 0.000000 10.043395 -10.042177 -12.649242 -10.361214 28.774971 0.461200 1.320811 -30.259935 21.122771 -0.012240 0.931058 -0.037578
59.787767 90.042005 -190.414129 -159.806754 14.069724 -10.904141 -0.168838 9.755229 2.056640 -0.118075 4.334721 0.914184 -0.118035 4.334749 0.914182 -0.094954 3.250966 0.686151 1.534167 16.057173 -4.743805 4.564502 -6.095073 -9.379659 7.133541 0.894388 12.588242 -10.261772 8.762015 73.199229 -3.199825 -10.720381 -3.432853 15.084947 16.757112 -23.524029 -13.126146 8.094862 -10.636196 -35.438132 -9.365626 -59.670383 -88.870609 5.831121 17.107449 -11.912827 0.366951 37.089583 -9.440229 -41.111649 -7.621416 -22.462691 84.868213 -21.899953 -15.588855 3.821055 1.389020 0.000000 0.000000 0.000000 11.481549 -5.645061 -9.816439 -13.268921 25.119251 0.101780 1.001624 -30.125853 19.223000 -0.013779 1.862338 -0.070829
59.644561 90.774079 -195.060682 -158.854341 14.033264 -11.465751 -0.775668 9.629204 2.290123 -0.391162 4.275798 1.030275 -0.391162 4.275798 1.030275 -0.300456 3.206202 0.775089 2.166675 16.287713 -4.954026 5.790324 -5.586826 -9.976333 7.104595 1.105271 12.709168 -12.551104 10.389989 72.412971 -0.998516 -13.042416 -3.300300 15.561373 18.545604 -23.378078 -13.342589 9.171970 -10.123793 -37.150891 -8.590311 -57.474318 -91.825215 11.296010 19.421388 -12.385158 -2.331027 36.770002 -6.277890 -43.942059 -7.836416 -15.566410 78.527133 -15.044166 -17.000791 2.603954 1.568301 0.000000 0.000000 0.000000 12.396210 -1.880009 -6.933223 -14.642734 22.286417 -0.030614 1.215458 -28.597742 17.200425 0.000000 0.000000 0.000000
59.168534 91.581924 -199.955789 -158.458587 13.653076 -12.207593 -1.142935 9.398967 2.572191 -0.558534 4.171200 1.162474 -0.558593 4.171319 1.162502 -0.426754 3.127510 0.875337 2.740571 16.651759 -5.031808 6.842782 -4.842628 -10.288101 7.419108 1.681616 12.840175 -14.865953 10.943432 71.427783 -0.814700 -11.845091 -3.454168 16.158007 18.859899 -23.423505 -13.247754 10.154427 -10.015642 -34.929183 -9.462276 -56.351349 -93.222717 15.589399 18.031467 -13.162673 -4.622945 36.528781 -0.514008 -45.028668 -10.071082 -11.455841 71.524120 -8.832205 -18.150057 0.289281 1.940055 0.000000 -0.000000 0.000000 11.914753 1.243772 -4.162871 -13.455321 20.585050 -0.096073 1.810512 -25.009688 15.343906 -0.023804 -7.449480 0.270416
58.474491 92.439477 -205.026739 -158.444269 13.022750 -13.058435 -1.369883 9.113466 2.879949 -0.663643 4.042030 1.302782 -0.663703 4.042114 1.302802 -0.506250 3.030249 0.981117 3.295437 17.116460 -5.029337 7.817628 -3.918877 -10.429210 7.920414 2.483190 13.002938 -17.107630 10.715554 70.324064 -1.404624 -8.879270 -3.837279 16.780712 18.486652 -23.505783 -12.970110 11.124503 -10.118617 -30.474261 -11.082075 -55.990396 -93.824406 18.626054 14.634119 -14.062951 -6.641234 36.275971 6.274032 -44.650627 -12.990859 -10.355783 63.309807 -4.697542 -19.035368 -2.538421 2.730599 0.000000 0.000000 0.000000 10.792515 3.987729 -1.604321 -10.941482 19.823340 -0.256247 2.594223 -19.963655 13.664442 -0.109996 -17.693864 0.612383
57.677788 93.114678 -210.105674 -158.189025 12.303733 -13.514551 -1.484155 8.907832 3.073271 -0.716725 3.949179 1.390214 -0.716725 3.949179 1.390214 -0.546330 2.960278 1.046887 3.655754 17.548440 -5.001147 8.425340 -3.080935 -10.455123 8.387025 3.330259 13.150301 -18.331115 9.995668 69.602608 -2.523866 -6.766532 -4.189222 17.152156 18.500808 -23.242251 -12.748904 11.957133 -10.330923 -26.221176 -12.339393 -56.241797 -93.360133 18.907294 10.811339 -14.326948 -7.591010 35.907738 10.575941 -43.247096 -14.720101 -9.631326 54.568255 -2.380986 -19.265042 -5.241666 3.949250 0.000000 0.000000 0.000000 9.837716 5.942614 0.213937 -8.366146 20.855976 -0.270258 3.225064 -14.663464 12.150303 -0.160760 -25.149084 0.720694
56.768999 93.569582 -215.130901 -157.404310 11.570427 -13.258973 -1.494297 8.823383 3.072122 -0.720604 3.911507 1.389725 -0.720546 3.911421 1.389712 -0.549064 2.931878 1.046480 3.700265 17.903622 -4.970608 8.458953 -2.423312 -10.377872 8.750674 4.115957 13.305895 -18.161887 8.819999 69.429436 -4.646035 -6.624670 -4.314087 17.106940 19.542746 -22.261569 -12.729348 12.680017 -10.702498 -22.639217 -12.973495 -57.001170 -91.072639 14.821710 6.419477 -13.325141 -6.572333 35.363622 10.757026 -40.738209 -14.710398 -6.904499 44.741741 -0.700959 -18.341675 -7.710673 6.261163 0.000000 0.000000 0.000000 9.335438 6.809829 0.998169 -5.886949 24.116004 0.433093 3.449567 -8.883477 10.420374 -0.143721 -27.950702 0.393758
55.757549 93.842133 -220.164112 -156.400644 10.737114 -12.627402 -1.380080 8.815601 2.960374 -0.667803 3.909079 1.337999 -0.667733 3.908946 1.337974 -0.509123 2.930163 1.007341 3.548391 18.225704 -4.923076 8.131613 -1.850768 -10.209956 9.084820 4.942127 13.464877 -17.014250 7.190844 69.564745 -7.340709 -7.303968 -4.259056 16.894999 20.995648 -20.908829 -12.755707 13.273995 -11.169653 -19.269389 -13.184259 -58.241021 -86.268040 8.883708 1.195451 -11.624015 -4.439385 35.123525 8.693118 -37.351786 -13.859853 -3.390127 34.478417 0.369698 -17.194168 -10.140923 9.333510 0.000000 0.000000 0.000000 8.852600 6.813252 1.090824 -3.115300 29.072633 1.802122 3.434286 -2.821836 8.954182 -0.125426 -27.950732 -0.124933
54.787069 93.814106 -225.222523 -155.460029 9.744697 -12.102700 -1.120950 8.885199 2.842745 -0.551235 3.942083 1.281051 -0.551235 3.942083 1.281051 -0.421540 2.955426 0.963970 3.388557 18.510852 -4.858907 7.789984 -1.348572 -10.014480 9.388185 5.944385 13.532915 -15.168141 5.378574 69.876782 -9.013713 -8.039903 -4.138377 16.854520 21.994475 -19.806070 -12.608791 13.536385 -11.467967 -17.224902 -12.630698 -59.696429 -79.252892 5.302452 -3.043753 -10.208901 -3.092746 35.259249 6.308113 -34.160298 -12.653400 -0.764603 26.502639 0.529626 -17.102848 -12.167885 11.502344 0.000000 0.000000 0.000000 8.096268 6.213176 1.012236 -0.546773 35.150122 3.120317 3.971945 1.597557 8.619067 -0.019657 -25.150887 -0.544712
53.918857 93.409250 -230.344105 -154.740019 8.475371 -11.839918 -0.624779 9.098356 2.741908 -0.330848 4.040188 1.226973 -0.330984 4.040411 1.227034 -0.256367 3.029846 0.922148 3.272526 18.754718 -4.747060 7.518947 -0.923685 -9.750895 9.708040 7.671335 13.469944 -12.542355 3.123622 70.577650 -8.748392 -8.621594 -4.227145 17.087119 22.153610 -19.183428 -12.156885 13.490547 -11.477898 -17.531248 -11.235316 -61.339509 -70.229921 5.417797 -4.370164 -9.509343 -3.702313 35.377803 4.192319 -31.334739 -11.001760 0.345141 21.874149 0.060387 -18.354162 -13.874139 11.282318 0.000000 -0.000000 0.000000 6.496719 5.056957 0.840257 1.777397 42.836885 3.849958 5.951099 3.175776 9.725992 0.194275 -17.694229 -0.648749
53.091615 92.703816 -235.490888 -154.077565 7.055721 -11.684686 0.019188 9.388744 2.655586 -0.045590 4.173023 1.175809 -0.045748 4.173237 1.175873 -0.042459 3.130034 0.881894 3.149691 18.960374 -4.617775 7.234622 -0.570295 -9.458074 10.022303 9.581717 13.362334 -9.294156 0.540965 71.236238 -7.451616 -9.319794 -4.481739 17.412099 21.817903 -18.869862 -11.544196 13.093174 -11.340587 -19.163494 -9.123396 -63.262203 -59.851440 6.616765 -3.615658 -9.083154 -5.035232 35.086452 1.797733 -28.643574 -9.047323 1.141564 19.562384 -0.483955 -20.120141 -15.119596 10.093511 0.000000 0.000000 0.000000 4.642176 3.294536 0.505040 3.921493 51.693421 4.390563 8.941744 2.985483 11.368420 0.180188 -7.445084 -0.379342
